{"accessors":[{"bufferView":0,"componentType":5126,"count":1236,"max":[24.72881507873535,7.307666778564453,26.8067569732666],"min":[-25.086551666259766,6.307666778564453,-1.715603232383728],"type":"VEC3"},{"bufferView":1,"componentType":5126,"count":1236,"type":"VEC3"},{"bufferView":2,"componentType":5126,"count":1236,"type":"VEC2"},{"bufferView":3,"componentType":5125,"count":1236,"type":"SCALAR"},{"bufferView":4,"componentType":5126,"count":14424,"max":[21.59754753112793,6.307666778564453,25.0],"min":[13.563103675842285,0.0,0.0],"type":"VEC3"},{"bufferView":5,"componentType":5126,"count":14424,"type":"VEC3"},{"bufferView":6,"componentType":5126,"count":14424,"type":"VEC2"},{"bufferView":7,"componentType":5125,"count":14424,"type":"SCALAR"},{"bufferView":8,"componentType":5126,"count":60,"max":[13.40244197845459,6.307666778564453,25.0],"min":[6.635740756988525,0.0,0.0],"type":"VEC3"},{"bufferView":9,"componentType":5126,"count":60,"type":"VEC3"},{"bufferView":10,"componentType":5126,"count":60,"type":"VEC2"},{"bufferView":11,"componentType":5125,"count":60,"type":"SCALAR"},{"bufferView":12,"componentType":5126,"count":14460,"max":[5.6758198738098145,6.307666778564453,25.0],"min":[-2.3505239486694336,0.0,0.0],"type":"VEC3"},{"bufferView":13,"componentType":5126,"count":14460,"type":"VEC3"},{"bufferView":14,"componentType":5126,"count":14460,"type":"VEC2"},{"bufferView":15,"componentType":5125,"count":14460,"type":"SCALAR"},{"bufferView":16,"componentType":5126,"count":2760,"max":[-3.0768775939941406,6.394073009490967,25.0],"min":[-13.46319580078125,0.0,0.0],"type":"VEC3"},{"bufferView":17,"componentType":5126,"count":2760,"type":"VEC3"},{"bufferView":18,"componentType":5126,"count":2760,"type":"VEC2"},{"bufferView":19,"componentType":5125,"count":2760,"type":"SCALAR"},{"bufferView":20,"componentType":5126,"count":84,"max":[-13.60495662689209,6.307666778564453,25.0],"min":[-21.947223663330078,0.0,0.0],"type":"VEC3"},{"bufferView":21,"componentType":5126,"count":84,"type":"VEC3"},{"bufferView":22,"componentType":5126,"count":84,"type":"VEC2"},{"bufferView":23,"componentType":5125,"count":84,"type":"SCALAR"}],"asset":{"generator":"Luxion KeyShot","version":"2.0"},"bufferViews":[{"buffer":0,"byteLength":14832,"byteOffset":0,"byteStride":12},{"buffer":0,"byteLength":14832,"byteOffset":14832,"byteStride":12},{"buffer":0,"byteLength":9888,"byteOffset":29664,"byteStride":8},{"buffer":0,"byteLength":4944,"byteOffset":39552},{"buffer":0,"byteLength":173088,"byteOffset":44496,"byteStride":12},{"buffer":0,"byteLength":173088,"byteOffset":217584,"byteStride":12},{"buffer":0,"byteLength":115392,"byteOffset":390672,"byteStride":8},{"buffer":0,"byteLength":57696,"byteOffset":506064},{"buffer":0,"byteLength":720,"byteOffset":563760,"byteStride":12},{"buffer":0,"byteLength":720,"byteOffset":564480,"byteStride":12},{"buffer":0,"byteLength":480,"byteOffset":565200,"byteStride":8},{"buffer":0,"byteLength":240,"byteOffset":565680},{"buffer":0,"byteLength":173520,"byteOffset":565920,"byteStride":12},{"buffer":0,"byteLength":173520,"byteOffset":739440,"byteStride":12},{"buffer":0,"byteLength":115680,"byteOffset":912960,"byteStride":8},{"buffer":0,"byteLength":57840,"byteOffset":1028640},{"buffer":0,"byteLength":33120,"byteOffset":1086480,"byteStride":12},{"buffer":0,"byteLength":33120,"byteOffset":1119600,"byteStride":12},{"buffer":0,"byteLength":22080,"byteOffset":1152720,"byteStride":8},{"buffer":0,"byteLength":11040,"byteOffset":1174800},{"buffer":0,"byteLength":1008,"byteOffset":1185840,"byteStride":12},{"buffer":0,"byteLength":1008,"byteOffset":1186848,"byteStride":12},{"buffer":0,"byteLength":672,"byteOffset":1187856,"byteStride":8},{"buffer":0,"byteLength":336,"byteOffset":1188528}],"buffers":[{"byteLength":1188864,"uri":"./tabletabl3_resources/tabletabl3.bin"}],"cameras":[{"name":"active","perspective":{"aspectRatio":1.0,"yfov":0.6911154697478635,"zfar":130.60641479492188,"znear":76.68053436279297},"type":"perspective"}],"images":[{"uri":"./tabletabl3_resources/tabl3_89_occlusion.png"},{"uri":"./tabletabl3_resources/tabl3_102_normal.png"},{"uri":"./tabletabl3_resources/tabl3_102_occlusion.png"},{"uri":"./tabletabl3_resources/tabl3_124_normal.png"},{"uri":"./tabletabl3_resources/tabl3_124_occlusion.png"},{"uri":"./tabletabl3_resources/tabl3_135_normal.png"},{"uri":"./tabletabl3_resources/tabl3_135_occlusion.png"},{"uri":"./tabletabl3_resources/tabl3_157_normal.png"},{"uri":"./tabletabl3_resources/tabl3_157_occlusion.png"},{"uri":"./tabletabl3_resources/tabl3_174_normal.png"},{"uri":"./tabletabl3_resources/tabl3_174_occlusion.png"}],"materials":[{"alphaMode":"BLEND","doubleSided":true,"occlusionTexture":{"index":0},"pbrMetallicRoughness":{"baseColorFactor":[0.19607800245285034,0.19607800245285034,0.19607800245285034,0.8039219975471497],"metallicFactor":0.0,"roughnessFactor":0.0}},{"doubleSided":true,"normalTexture":{"index":1,"scale":-1},"occlusionTexture":{"index":2},"pbrMetallicRoughness":{"baseColorFactor":[1.0,0.7668747305870056,0.3370361328125,1.0],"metallicFactor":1.0,"roughnessFactor":0.10000000149011612}},{"doubleSided":true,"normalTexture":{"index":3,"scale":-1},"occlusionTexture":{"index":4},"pbrMetallicRoughness":{"baseColorFactor":[1.0,0.7668747305870056,0.3370361328125,1.0],"metallicFactor":1.0,"roughnessFactor":0.10000000149011612}},{"doubleSided":true,"normalTexture":{"index":5,"scale":-1},"occlusionTexture":{"index":6},"pbrMetallicRoughness":{"baseColorFactor":[1.0,0.7668747305870056,0.3370361328125,1.0],"metallicFactor":1.0,"roughnessFactor":0.10000000149011612}},{"doubleSided":true,"normalTexture":{"index":7,"scale":-1},"occlusionTexture":{"index":8},"pbrMetallicRoughness":{"baseColorFactor":[1.0,0.7668747305870056,0.3370361328125,1.0],"metallicFactor":1.0,"roughnessFactor":0.10000000149011612}},{"doubleSided":true,"normalTexture":{"index":9,"scale":-1},"occlusionTexture":{"index":10},"pbrMetallicRoughness":{"baseColorFactor":[1.0,0.7668747305870056,0.3370361328125,1.0],"metallicFactor":1.0,"roughnessFactor":0.10000000149011612}}],"meshes":[{"name":"tabl3-mesh","primitives":[{"attributes":{"NORMAL":1,"POSITION":0,"TEXCOORD_0":2},"indices":3,"material":0,"mode":4}]},{"name":"tabl3-mesh","primitives":[{"attributes":{"NORMAL":5,"POSITION":4,"TEXCOORD_0":6},"indices":7,"material":1,"mode":4}]},{"name":"tabl3-mesh","primitives":[{"attributes":{"NORMAL":9,"POSITION":8,"TEXCOORD_0":10},"indices":11,"material":2,"mode":4}]},{"name":"tabl3-mesh","primitives":[{"attributes":{"NORMAL":13,"POSITION":12,"TEXCOORD_0":14},"indices":15,"material":3,"mode":4}]},{"name":"tabl3-mesh","primitives":[{"attributes":{"NORMAL":17,"POSITION":16,"TEXCOORD_0":18},"indices":19,"material":4,"mode":4}]},{"name":"tabl3-mesh","primitives":[{"attributes":{"NORMAL":21,"POSITION":20,"TEXCOORD_0":22},"indices":23,"material":5,"mode":4}]}],"nodes":[{"camera":0,"matrix":[0.7660444257125132,-1.7316120981547556e-07,0.6427876168189162,0.0,0.16636580437561752,0.9659258220984632,-0.19826677813262727,0.0,-0.6208851337432861,0.258819043636322,0.7399421334266663,0.0,-64.35069274902344,30.47873878479004,76.69017028808594,1.0],"name":"active"},{"mesh":0,"name":"tabl3"},{"children":[1],"name":"tabl3"},{"mesh":1,"name":"tabl3"},{"children":[3],"name":"tabl3"},{"mesh":2,"name":"tabl3"},{"children":[5],"name":"tabl3"},{"mesh":3,"name":"tabl3"},{"children":[7],"name":"tabl3"},{"mesh":4,"name":"tabl3"},{"children":[9],"name":"tabl3"},{"mesh":5,"name":"tabl3"},{"children":[11],"name":"tabl3"},{"children":[2,4,6,8,10,12],"matrix":[1.0,0.0,0.0,0.0,0.0,1.0,0.0,0.0,0.0,0.0,1.0,0.0,0.17886829376220703,0.0,-12.545577049255371,1.0],"name":"tabl3"},{"children":[13],"name":"Default"},{"children":[14],"matrix":[0.001,0.0,0.0,0.0,0.0,0.001,0.0,0.0,0.0,0.0,0.001,0.0,0.0,0.0,0.0,1.0],"name":"lux_root"}],"samplers":[{"magFilter":9729,"minFilter":9987,"wrapS":10497,"wrapT":10497},{"magFilter":9729,"minFilter":9987,"wrapS":10497,"wrapT":10497},{"magFilter":9729,"minFilter":9987,"wrapS":10497,"wrapT":10497},{"magFilter":9729,"minFilter":9987,"wrapS":10497,"wrapT":10497},{"magFilter":9729,"minFilter":9987,"wrapS":10497,"wrapT":10497},{"magFilter":9729,"minFilter":9987,"wrapS":10497,"wrapT":10497},{"magFilter":9729,"minFilter":9987,"wrapS":10497,"wrapT":10497},{"magFilter":9729,"minFilter":9987,"wrapS":10497,"wrapT":10497},{"magFilter":9729,"minFilter":9987,"wrapS":10497,"wrapT":10497},{"magFilter":9729,"minFilter":9987,"wrapS":10497,"wrapT":10497},{"magFilter":9729,"minFilter":9987,"wrapS":10497,"wrapT":10497}],"scenes":[{"nodes":[0,15]}],"textures":[{"sampler":0,"source":0},{"sampler":1,"source":1},{"sampler":2,"source":2},{"sampler":3,"source":3},{"sampler":4,"source":4},{"sampler":5,"source":5},{"sampler":6,"source":6},{"sampler":7,"source":7},{"sampler":8,"source":8},{"sampler":9,"source":9},{"sampler":10,"source":10}]} 