{"accessors":[{"bufferView":0,"componentType":5126,"count":7134,"max":[21.59754753112793,6.307666778564453,6.0],"min":[13.563103675842285,0.0,-6.0],"type":"VEC3"},{"bufferView":1,"componentType":5126,"count":7134,"type":"VEC3"},{"bufferView":2,"componentType":5126,"count":7134,"type":"VEC2"},{"bufferView":3,"componentType":5125,"count":7134,"type":"SCALAR"},{"bufferView":4,"componentType":5126,"count":60,"max":[13.40244197845459,6.307666778564453,6.0],"min":[6.635740756988525,0.0,-6.0],"type":"VEC3"},{"bufferView":5,"componentType":5126,"count":60,"type":"VEC3"},{"bufferView":6,"componentType":5126,"count":60,"type":"VEC2"},{"bufferView":7,"componentType":5125,"count":60,"type":"SCALAR"},{"bufferView":8,"componentType":5126,"count":7146,"max":[5.6758198738098145,6.307666778564453,6.0],"min":[-2.3505239486694336,0.0,-6.0],"type":"VEC3"},{"bufferView":9,"componentType":5126,"count":7146,"type":"VEC3"},{"bufferView":10,"componentType":5126,"count":7146,"type":"VEC2"},{"bufferView":11,"componentType":5125,"count":7146,"type":"SCALAR"},{"bufferView":12,"componentType":5126,"count":1482,"max":[-3.0768775939941406,6.394073009490967,6.0],"min":[-13.46319580078125,0.0,-6.0],"type":"VEC3"},{"bufferView":13,"componentType":5126,"count":1482,"type":"VEC3"},{"bufferView":14,"componentType":5126,"count":1482,"type":"VEC2"},{"bufferView":15,"componentType":5125,"count":1482,"type":"SCALAR"},{"bufferView":16,"componentType":5126,"count":84,"max":[-13.60495662689209,6.307666778564453,6.0],"min":[-21.947223663330078,0.0,-6.0],"type":"VEC3"},{"bufferView":17,"componentType":5126,"count":84,"type":"VEC3"},{"bufferView":18,"componentType":5126,"count":84,"type":"VEC2"},{"bufferView":19,"componentType":5125,"count":84,"type":"SCALAR"}],"asset":{"generator":"Luxion KeyShot","version":"2.0"},"bufferViews":[{"buffer":0,"byteLength":85608,"byteOffset":0,"byteStride":12},{"buffer":0,"byteLength":85608,"byteOffset":85608,"byteStride":12},{"buffer":0,"byteLength":57072,"byteOffset":171216,"byteStride":8},{"buffer":0,"byteLength":28536,"byteOffset":228288},{"buffer":0,"byteLength":720,"byteOffset":256824,"byteStride":12},{"buffer":0,"byteLength":720,"byteOffset":257544,"byteStride":12},{"buffer":0,"byteLength":480,"byteOffset":258264,"byteStride":8},{"buffer":0,"byteLength":240,"byteOffset":258744},{"buffer":0,"byteLength":85752,"byteOffset":258984,"byteStride":12},{"buffer":0,"byteLength":85752,"byteOffset":344736,"byteStride":12},{"buffer":0,"byteLength":57168,"byteOffset":430488,"byteStride":8},{"buffer":0,"byteLength":28584,"byteOffset":487656},{"buffer":0,"byteLength":17784,"byteOffset":516240,"byteStride":12},{"buffer":0,"byteLength":17784,"byteOffset":534024,"byteStride":12},{"buffer":0,"byteLength":11856,"byteOffset":551808,"byteStride":8},{"buffer":0,"byteLength":5928,"byteOffset":563664},{"buffer":0,"byteLength":1008,"byteOffset":569592,"byteStride":12},{"buffer":0,"byteLength":1008,"byteOffset":570600,"byteStride":12},{"buffer":0,"byteLength":672,"byteOffset":571608,"byteStride":8},{"buffer":0,"byteLength":336,"byteOffset":572280}],"buffers":[{"byteLength":572616,"uri":"./tabl3_resources/tabl3.bin"}],"cameras":[{"name":"active","perspective":{"aspectRatio":1.0,"yfov":0.3947917271042812,"zfar":153.4188232421875,"znear":140.1728057861328},"type":"perspective"}],"images":[{"uri":"./tabl3_resources/tabl3logo_78_occlusion.png"},{"uri":"./tabl3_resources/tabl3logo_100_occlusion.png"},{"uri":"./tabl3_resources/tabl3logo_111_occlusion.png"},{"uri":"./tabl3_resources/tabl3logo_133_occlusion.png"},{"uri":"./tabl3_resources/tabl3logo_150_occlusion.png"}],"materials":[{"alphaMode":"BLEND","doubleSided":true,"occlusionTexture":{"index":0},"pbrMetallicRoughness":{"baseColorFactor":[1.0,1.0,1.0,0.0],"metallicFactor":0.0,"roughnessFactor":0.0}},{"alphaMode":"BLEND","doubleSided":true,"occlusionTexture":{"index":1},"pbrMetallicRoughness":{"baseColorFactor":[1.0,1.0,1.0,0.0],"metallicFactor":0.0,"roughnessFactor":0.0}},{"alphaMode":"BLEND","doubleSided":true,"occlusionTexture":{"index":2},"pbrMetallicRoughness":{"baseColorFactor":[1.0,1.0,1.0,0.0],"metallicFactor":0.0,"roughnessFactor":0.0}},{"alphaMode":"BLEND","doubleSided":true,"occlusionTexture":{"index":3},"pbrMetallicRoughness":{"baseColorFactor":[1.0,1.0,1.0,0.0],"metallicFactor":0.0,"roughnessFactor":0.0}},{"alphaMode":"BLEND","doubleSided":true,"occlusionTexture":{"index":4},"pbrMetallicRoughness":{"baseColorFactor":[1.0,1.0,1.0,0.0],"metallicFactor":0.0,"roughnessFactor":0.0}}],"meshes":[{"name":"tabl3logo-mesh","primitives":[{"attributes":{"NORMAL":1,"POSITION":0,"TEXCOORD_0":2},"indices":3,"material":0,"mode":4}]},{"name":"tabl3logo-mesh","primitives":[{"attributes":{"NORMAL":5,"POSITION":4,"TEXCOORD_0":6},"indices":7,"material":1,"mode":4}]},{"name":"tabl3logo-mesh","primitives":[{"attributes":{"NORMAL":9,"POSITION":8,"TEXCOORD_0":10},"indices":11,"material":2,"mode":4}]},{"name":"tabl3logo-mesh","primitives":[{"attributes":{"NORMAL":13,"POSITION":12,"TEXCOORD_0":14},"indices":15,"material":3,"mode":4}]},{"name":"tabl3logo-mesh","primitives":[{"attributes":{"NORMAL":17,"POSITION":16,"TEXCOORD_0":18},"indices":19,"material":4,"mode":4}]}],"nodes":[{"camera":0,"matrix":[1.0000003030452378,-1.8807290945917336e-07,3.8469139311377993e-08,0.0,1.9162105624987306e-07,0.9659262842544581,-0.25881909226787136,0.0,1.151849993163978e-08,0.25881901383399963,0.9659259915351868,0.0,0.24466200172901154,41.085601806640625,141.82200622558594,1.0],"name":"active"},{"mesh":0,"name":"tabl3logo"},{"children":[1],"name":"tabl3logo"},{"mesh":1,"name":"tabl3logo"},{"children":[3],"name":"tabl3logo"},{"mesh":2,"name":"tabl3logo"},{"children":[5],"name":"tabl3logo"},{"mesh":3,"name":"tabl3logo"},{"children":[7],"name":"tabl3logo"},{"mesh":4,"name":"tabl3logo"},{"children":[9],"name":"tabl3logo"},{"children":[2,4,6,8,10],"matrix":[1.0,0.0,0.0,0.0,0.0,1.0,0.0,0.0,0.0,0.0,1.0,0.0,0.17483800649642944,0.0,0.0,1.0],"name":"tabl3logo"},{"children":[11],"name":"Default"},{"children":[12],"matrix":[0.001,0.0,0.0,0.0,0.0,0.001,0.0,0.0,0.0,0.0,0.001,0.0,0.0,0.0,0.0,1.0],"name":"lux_root"}],"samplers":[{"magFilter":9729,"minFilter":9987,"wrapS":10497,"wrapT":10497},{"magFilter":9729,"minFilter":9987,"wrapS":10497,"wrapT":10497},{"magFilter":9729,"minFilter":9987,"wrapS":10497,"wrapT":10497},{"magFilter":9729,"minFilter":9987,"wrapS":10497,"wrapT":10497},{"magFilter":9729,"minFilter":9987,"wrapS":10497,"wrapT":10497}],"scenes":[{"nodes":[0,13]}],"textures":[{"sampler":0,"source":0},{"sampler":1,"source":1},{"sampler":2,"source":2},{"sampler":3,"source":3},{"sampler":4,"source":4}]}